<?xml version="1.0" encoding="UTF-8"?>
<svg id="Capa_2" data-name="Capa 2" xmlns="http://www.w3.org/2000/svg" viewBox="0 0 879.32 195.91">
  <defs>
    <style>
      .cls-1 {
        fill: #f15a24;
      }
    </style>
  </defs>
  <g id="Capa_4" data-name="Capa 4">
    <g>
      <path class="cls-1" d="m136.34,16.5l-6.34,3.17-22.19-11.1-4.62-2.31c-1.08-.54-2.36-.54-3.44,0l-4.63,2.31-22.2,11.1-6.34-3.17,22.2-11.1,6.34-3.17,2.78-1.39c2.24-1.12,4.88-1.12,7.12,0l2.78,1.39,6.34,3.17,22.19,11.1Z"/>
      <path class="cls-1" d="m136.34,83.09l-22.19,11.1-6.34,3.17-2.78,1.39c-2.24,1.12-4.88,1.12-7.12,0l-2.78-1.39-6.34-3.17-22.2-11.1,6.34-3.17,22.2,11.1,4.63,2.31c1.08.54,2.36.54,3.44,0l4.62-2.31,22.19-11.1,6.34,3.17Z"/>
      <path class="cls-1" d="m95.12,112.95v78.25c0,3.5-3.68,5.78-6.82,4.21L2.6,152.56c-1.6-.8-2.6-2.43-2.6-4.21v-78.25c0-3.5,3.68-5.78,6.82-4.21l85.71,42.85c1.6.8,2.6,2.43,2.6,4.21Z"/>
      <path class="cls-1" d="m123.66,48.21c1.31.65,1.31,2.52,0,3.17l-3.17,1.59-3.18,1.59-3.16,1.58h0l-3.17,1.59-6.34-3.17,3.17-1.59,3.16-1.58,1.66-.83c.62-.31.62-1.2,0-1.52l-1.66-.83-3.17-1.58-3.17-1.58-3.17-1.58,6.34-3.17,3.17,1.58,3.17,1.58,3.17,1.58,3.18,1.59,3.17,1.59Z"/>
      <path class="cls-1" d="m196.59,46.62l-6.34-3.17-25.37-12.68-6.34-3.17-6.34-3.17h0l-6.34-3.17-3.31-1.65c-1.91-.95-4.16-.95-6.06,0l-2.43,1.21h0s-7.22,3.61-7.22,3.61l-22.2,11.1,6.34,3.17,22.2-11.1,3.31-1.66c1.91-.95,4.16-.95,6.07,0l3.31,1.65,6.34,3.17,6.34,3.17,25.37,12.68,4.58,2.29c.73.36.73,1.4,0,1.76l-4.58,2.29-25.37,12.68-6.34,3.17-6.34,3.17-3.31,1.66c-1.91.96-4.16.96-6.07,0l-3.31-1.66-25.37-12.68-6.34,3.17,25.37,12.68,6.34,3.17,3.31,1.65c1.91.95,4.16.95,6.06,0l3.31-1.65,6.34-3.17,6.34-3.17,6.34-3.17,25.37-12.68,6.34-3.17h0c2.61-1.31,2.61-5.03,0-6.34h0Z"/>
      <polygon class="cls-1" points="107.8 59.3 101.47 62.47 95.12 59.3 101.47 56.13 107.8 59.3"/>
      <path class="cls-1" d="m101.47,56.13l-6.34,3.17-3.18-1.59-3.17-1.58-3.17-1.58-3.17-1.58-3.17-1.59c-1.31-.65-1.31-2.52,0-3.17h0s3.17-1.58,3.17-1.58l3.17-1.58,3.17-1.59,3.17-1.58,6.34,3.17-3.17,1.58-3.17,1.59-1.65.83c-.62.31-.62,1.2,0,1.52l1.65.83,3.17,1.58,3.17,1.58,3.18,1.59Z"/>
      <polygon class="cls-1" points="107.8 40.28 101.47 43.45 95.12 40.28 101.47 37.11 107.8 40.28"/>
      <path class="cls-1" d="m91.95,60.89l-22.19,11.1-3.31,1.65c-1.91.96-4.16.96-6.07,0l-3.31-1.66-6.34-3.17-6.34-3.17-25.37-12.68-4.58-2.29c-.73-.36-.73-1.4,0-1.76l4.58-2.29,25.37-12.68,6.34-3.17,6.34-3.17,3.31-1.65c1.91-.95,4.16-.95,6.07,0l3.31,1.66,25.37,12.68,6.34-3.17-25.37-12.68-6.35-3.17-3.31-1.65c-1.91-.95-4.16-.95-6.06,0l-3.31,1.65-6.34,3.17h0l-6.34,3.17-6.34,3.17-25.37,12.68-6.34,3.17h0c-2.61,1.31-2.61,5.03,0,6.34h0s6.34,3.17,6.34,3.17l25.37,12.68,6.34,3.17,6.34,3.17,6.34,3.17,3.31,1.65c1.91.95,4.16.95,6.06,0l3.31-1.65h0s28.54-14.27,28.54-14.27l-6.34-3.17Z"/>
      <path class="cls-1" d="m202.93,70.1v78.25c0,1.78-1.01,3.41-2.6,4.21l-85.71,42.85c-3.13,1.57-6.82-.71-6.82-4.21v-78.25c0-1.78,1.01-3.41,2.6-4.21l85.71-42.85c3.13-1.57,6.82.71,6.82,4.21Z"/>
    </g>
    <g>
      <path class="cls-1" d="m238.68,144.46c-.92,0-1.68-.29-2.26-.88-.59-.58-.88-1.3-.88-2.14V59.65c0-.92.29-1.67.88-2.26s1.34-.88,2.26-.88h9.93c1.17,0,2.05.31,2.64.94.58.63.96,1.11,1.13,1.44l24.25,45.23,24.5-45.23c.17-.33.54-.82,1.13-1.44.58-.63,1.46-.94,2.64-.94h9.8c.92,0,1.67.29,2.26.88.58.59.88,1.34.88,2.26v81.79c0,.84-.29,1.55-.88,2.14s-1.34.88-2.26.88h-10.55c-.92,0-1.66-.29-2.2-.88-.55-.58-.82-1.3-.82-2.14v-54.4l-17.59,33.55c-.42.75-.96,1.4-1.63,1.95-.67.55-1.55.82-2.64.82h-5.15c-1.17,0-2.07-.27-2.7-.82-.63-.54-1.15-1.19-1.57-1.95l-17.59-33.55v54.4c0,.84-.29,1.55-.88,2.14s-1.3.88-2.14.88h-10.55Z"/>
      <path class="cls-1" d="m364.07,145.71c-9.3,0-16.67-2.68-22.11-8.04-5.45-5.36-8.38-12.98-8.79-22.87-.08-.84-.13-1.9-.13-3.2s.04-2.32.13-3.08c.33-6.28,1.78-11.73,4.33-16.33,2.55-4.61,6.09-8.15,10.62-10.62,4.52-2.47,9.84-3.71,15.96-3.71,6.78,0,12.48,1.4,17.09,4.21,4.61,2.81,8.08,6.7,10.43,11.69,2.34,4.98,3.52,10.74,3.52,17.28v2.64c0,.84-.29,1.55-.88,2.14s-1.34.88-2.26.88h-41.71v1c.08,2.93.65,5.63,1.7,8.1,1.05,2.47,2.6,4.46,4.65,5.97,2.05,1.51,4.5,2.26,7.35,2.26,2.34,0,4.31-.36,5.91-1.07,1.59-.71,2.89-1.53,3.89-2.45,1-.92,1.72-1.67,2.14-2.26.75-1,1.36-1.61,1.82-1.82.46-.21,1.15-.31,2.07-.31h10.8c.84,0,1.53.25,2.07.75.54.5.77,1.13.69,1.88-.08,1.34-.78,2.97-2.07,4.9-1.3,1.93-3.16,3.81-5.59,5.65-2.43,1.84-5.47,3.37-9.11,4.59s-7.81,1.82-12.5,1.82Zm-13.82-39.58h27.77v-.38c0-3.27-.55-6.11-1.63-8.54-1.09-2.43-2.68-4.35-4.77-5.78-2.09-1.42-4.61-2.14-7.54-2.14s-5.45.71-7.54,2.14c-2.09,1.43-3.67,3.35-4.71,5.78-1.05,2.43-1.57,5.28-1.57,8.54v.38Z"/>
      <path class="cls-1" d="m433.17,145.71c-5.03,0-9.32-.59-12.88-1.76-3.56-1.17-6.47-2.64-8.73-4.4-2.26-1.76-3.94-3.52-5.03-5.28-1.09-1.76-1.68-3.22-1.76-4.4-.08-.92.19-1.65.82-2.2.63-.54,1.32-.82,2.07-.82h9.93c.33,0,.63.04.88.13.25.08.58.34,1,.75,1.09.92,2.24,1.88,3.46,2.89,1.21,1.01,2.66,1.87,4.33,2.58,1.67.71,3.77,1.07,6.28,1.07,3.27,0,6.01-.65,8.23-1.95,2.22-1.3,3.33-3.16,3.33-5.59,0-1.76-.48-3.18-1.44-4.27-.96-1.09-2.75-2.07-5.34-2.95-2.6-.88-6.28-1.82-11.06-2.83-4.69-1.09-8.59-2.47-11.68-4.15-3.1-1.67-5.4-3.77-6.91-6.28-1.51-2.51-2.26-5.44-2.26-8.79s.98-6.39,2.95-9.36c1.97-2.97,4.9-5.42,8.79-7.35,3.9-1.93,8.73-2.89,14.51-2.89,4.52,0,8.46.57,11.81,1.7,3.35,1.13,6.13,2.53,8.36,4.21,2.22,1.68,3.91,3.37,5.09,5.09,1.17,1.72,1.8,3.2,1.88,4.46.08.92-.17,1.65-.75,2.2-.59.55-1.26.82-2.01.82h-9.3c-.42,0-.8-.08-1.13-.25-.34-.17-.67-.38-1-.63-.92-.84-1.93-1.72-3.02-2.64-1.09-.92-2.41-1.74-3.96-2.45-1.55-.71-3.58-1.07-6.09-1.07-3.18,0-5.61.69-7.29,2.07-1.68,1.38-2.51,3.12-2.51,5.21,0,1.43.4,2.66,1.19,3.71.79,1.05,2.41,2.03,4.84,2.95,2.43.92,6.11,1.88,11.06,2.89,5.61,1.01,10.07,2.49,13.38,4.46,3.31,1.97,5.65,4.23,7.04,6.78,1.38,2.56,2.07,5.38,2.07,8.48,0,3.77-1.11,7.16-3.33,10.18-2.22,3.02-5.49,5.38-9.8,7.1-4.32,1.72-9.66,2.58-16.02,2.58Z"/>
      <path class="cls-1" d="m494.23,145.71c-4.36,0-8.29-.86-11.81-2.58-3.52-1.72-6.3-4.02-8.36-6.91-2.05-2.89-3.08-6.13-3.08-9.74,0-5.86,2.37-10.53,7.1-14.01,4.73-3.47,10.99-5.8,18.78-6.97l17.21-2.51v-2.64c0-3.52-.88-6.24-2.64-8.17-1.76-1.93-4.77-2.89-9.05-2.89-3.01,0-5.46.61-7.35,1.82-1.88,1.22-3.29,2.83-4.21,4.84-.67,1.09-1.63,1.63-2.89,1.63h-9.93c-.92,0-1.61-.25-2.07-.75-.46-.5-.69-1.17-.69-2.01.08-1.34.63-2.97,1.63-4.9,1-1.93,2.59-3.79,4.77-5.59,2.18-1.8,4.98-3.33,8.42-4.59,3.43-1.26,7.58-1.88,12.44-1.88,5.28,0,9.74.65,13.38,1.95,3.64,1.3,6.55,3.04,8.73,5.21,2.18,2.18,3.77,4.73,4.77,7.66,1,2.93,1.51,6.03,1.51,9.3v39.45c0,.84-.29,1.55-.88,2.14s-1.3.88-2.14.88h-10.18c-.92,0-1.66-.29-2.2-.88-.55-.58-.82-1.3-.82-2.14v-4.9c-1.09,1.59-2.56,3.08-4.4,4.46-1.84,1.38-4.08,2.51-6.72,3.39-2.64.88-5.76,1.32-9.36,1.32Zm4.27-11.94c2.93,0,5.59-.63,7.98-1.88,2.39-1.26,4.27-3.2,5.65-5.84,1.38-2.64,2.07-5.97,2.07-9.99v-2.64l-12.56,2.01c-4.94.75-8.63,1.97-11.06,3.64-2.43,1.68-3.64,3.73-3.64,6.16,0,1.84.56,3.41,1.7,4.71,1.13,1.3,2.58,2.26,4.33,2.89,1.76.63,3.6.94,5.53.94Z"/>
      <path class="cls-1" d="m582.43,145.71c-7.79,0-14.39-1.36-19.79-4.08-5.4-2.72-9.53-6.62-12.38-11.68-2.85-5.07-4.44-11.16-4.77-18.28-.08-3.43-.12-7.12-.12-11.06s.04-7.71.12-11.31c.33-7.04,1.95-13.11,4.84-18.22,2.89-5.11,7.04-9.02,12.44-11.75,5.4-2.72,11.96-4.08,19.66-4.08,5.7,0,10.8.75,15.33,2.26,4.52,1.51,8.38,3.58,11.56,6.22,3.18,2.64,5.65,5.72,7.41,9.23s2.68,7.33,2.76,11.43c.08.75-.15,1.38-.69,1.88-.55.5-1.19.75-1.95.75h-11.94c-.92,0-1.68-.23-2.26-.69-.59-.46-1.01-1.23-1.26-2.32-1.34-5.53-3.64-9.3-6.91-11.31s-7.33-3.02-12.19-3.02c-5.61,0-10.09,1.57-13.44,4.71-3.35,3.14-5.15,8.31-5.4,15.52-.25,6.87-.25,13.9,0,21.11.25,7.21,2.05,12.38,5.4,15.52,3.35,3.14,7.83,4.71,13.44,4.71,4.86,0,8.92-1.02,12.19-3.08,3.27-2.05,5.57-5.8,6.91-11.25.25-1.17.67-1.97,1.26-2.39.58-.42,1.34-.63,2.26-.63h11.94c.75,0,1.4.25,1.95.75.54.5.77,1.13.69,1.88-.08,4.1-1.01,7.92-2.76,11.43s-4.23,6.6-7.41,9.23c-3.18,2.64-7.04,4.71-11.56,6.22-4.52,1.51-9.63,2.26-15.33,2.26Z"/>
      <path class="cls-1" d="m636.08,144.46c-.84,0-1.55-.29-2.14-.88-.59-.58-.88-1.3-.88-2.14V58.27c0-.84.29-1.55.88-2.14s1.3-.88,2.14-.88h11.18c.92,0,1.65.29,2.2.88.54.59.82,1.3.82,2.14v28.65c2.26-2.68,5.03-4.86,8.29-6.53,3.27-1.67,7.29-2.51,12.06-2.51,5.11,0,9.57,1.15,13.38,3.46,3.81,2.31,6.76,5.55,8.86,9.74,2.09,4.19,3.14,9.22,3.14,15.08v35.31c0,.84-.29,1.55-.88,2.14s-1.3.88-2.14.88h-11.31c-.84,0-1.55-.29-2.14-.88-.59-.58-.88-1.3-.88-2.14v-34.55c0-4.86-1.19-8.67-3.58-11.43-2.39-2.76-5.84-4.15-10.37-4.15s-7.85,1.38-10.49,4.15-3.96,6.58-3.96,11.43v34.55c0,.84-.27,1.55-.82,2.14-.55.59-1.28.88-2.2.88h-11.18Z"/>
      <path class="cls-1" d="m730.94,145.71c-4.36,0-8.29-.86-11.81-2.58-3.52-1.72-6.3-4.02-8.36-6.91-2.05-2.89-3.08-6.13-3.08-9.74,0-5.86,2.37-10.53,7.1-14.01,4.73-3.47,10.99-5.8,18.78-6.97l17.21-2.51v-2.64c0-3.52-.88-6.24-2.64-8.17-1.76-1.93-4.77-2.89-9.05-2.89-3.01,0-5.46.61-7.35,1.82-1.88,1.22-3.29,2.83-4.21,4.84-.67,1.09-1.63,1.63-2.89,1.63h-9.93c-.92,0-1.61-.25-2.07-.75-.46-.5-.69-1.17-.69-2.01.08-1.34.63-2.97,1.63-4.9,1-1.93,2.59-3.79,4.77-5.59,2.18-1.8,4.98-3.33,8.42-4.59,3.43-1.26,7.58-1.88,12.44-1.88,5.28,0,9.74.65,13.38,1.95,3.64,1.3,6.55,3.04,8.73,5.21,2.18,2.18,3.77,4.73,4.77,7.66,1,2.93,1.51,6.03,1.51,9.3v39.45c0,.84-.29,1.55-.88,2.14s-1.3.88-2.14.88h-10.18c-.92,0-1.66-.29-2.2-.88-.55-.58-.82-1.3-.82-2.14v-4.9c-1.09,1.59-2.56,3.08-4.4,4.46-1.84,1.38-4.08,2.51-6.72,3.39-2.64.88-5.76,1.32-9.36,1.32Zm4.27-11.94c2.93,0,5.59-.63,7.98-1.88,2.39-1.26,4.27-3.2,5.65-5.84,1.38-2.64,2.07-5.97,2.07-9.99v-2.64l-12.56,2.01c-4.94.75-8.63,1.97-11.06,3.64-2.43,1.68-3.64,3.73-3.64,6.16,0,1.84.56,3.41,1.7,4.71,1.13,1.3,2.58,2.26,4.33,2.89,1.76.63,3.6.94,5.53.94Z"/>
      <path class="cls-1" d="m786.22,68.32c-.92,0-1.66-.27-2.2-.82-.55-.54-.82-1.28-.82-2.2v-9.05c0-.84.27-1.55.82-2.14.54-.58,1.28-.88,2.2-.88h11.43c.92,0,1.67.29,2.26.88.58.59.88,1.3.88,2.14v9.05c0,.92-.29,1.65-.88,2.2-.59.55-1.34.82-2.26.82h-11.43Zm.5,76.14c-.84,0-1.55-.29-2.14-.88-.59-.58-.88-1.3-.88-2.14v-59.3c0-.84.29-1.55.88-2.14s1.3-.88,2.14-.88h10.43c.92,0,1.65.29,2.2.88.54.59.82,1.3.82,2.14v59.3c0,.84-.27,1.55-.82,2.14-.55.59-1.28.88-2.2.88h-10.43Z"/>
      <path class="cls-1" d="m819.89,144.46c-.84,0-1.55-.29-2.14-.88-.59-.58-.88-1.3-.88-2.14v-59.3c0-.84.29-1.55.88-2.14s1.3-.88,2.14-.88h10.3c.84,0,1.55.29,2.14.88.58.59.88,1.3.88,2.14v5.15c2.18-2.68,4.96-4.92,8.36-6.72,3.39-1.8,7.6-2.7,12.63-2.7s9.55,1.15,13.32,3.46c3.77,2.31,6.68,5.55,8.73,9.74,2.05,4.19,3.08,9.22,3.08,15.08v35.31c0,.84-.29,1.55-.88,2.14s-1.3.88-2.14.88h-11.06c-.84,0-1.55-.29-2.14-.88-.59-.58-.88-1.3-.88-2.14v-34.55c0-4.86-1.19-8.67-3.58-11.43-2.39-2.76-5.84-4.15-10.37-4.15s-7.83,1.38-10.43,4.15c-2.6,2.76-3.89,6.58-3.89,11.43v34.55c0,.84-.29,1.55-.88,2.14s-1.3.88-2.14.88h-11.06Z"/>
    </g>
  </g>
</svg>